<svg width="24" height="24" viewBox="0 0 24 24" fill="none" xmlns="http://www.w3.org/2000/svg">
<path d="M2.75 6.861C2.75 3.459 3.46 2.75 6.861 2.75M2.75 14.056V9.944M6.861 21.25C3.459 21.25 2.75 20.54 2.75 17.139M14.056 21.25H9.944M21.25 17.139C21.25 20.541 20.54 21.25 17.139 21.25M21.25 9.944V14.056M17.139 2.75C20.541 2.75 21.25 3.46 21.25 6.861M9.944 2.75H14.056" stroke="#E8175D" stroke-width="1.5" stroke-linecap="round"/>
<g clip-path="url(#clip0_228_645)">
<path d="M23.82 3.49023V4.49023C23.8188 4.95568 23.7092 5.41444 23.5 5.83023C23.2971 6.24962 22.9992 6.61597 22.63 6.90023C22.2612 7.18133 21.8341 7.37611 21.38 7.47023C21.1794 7.51023 20.976 7.53023 20.77 7.53023C20.5094 7.53023 20.2527 7.50023 20 7.44023L15.76 6.24023V14.4602C15.7627 15.5631 15.3846 16.6331 14.6898 17.4895C13.9949 18.346 13.0258 18.9364 11.9461 19.1611C10.8663 19.3859 9.74213 19.2311 8.76328 18.723C7.78442 18.2149 7.01088 17.3846 6.57327 16.3723C6.13566 15.3599 6.06079 14.2276 6.3613 13.1664C6.66181 12.1053 7.3193 11.1804 8.22273 10.5478C9.12617 9.91526 10.2202 9.61383 11.3201 9.69444C12.4201 9.77504 13.4585 10.2327 14.26 10.9902V-0.539766C14.2489 -0.605963 14.2489 -0.673568 14.26 -0.739766V-0.819766C14.3085 -0.930843 14.3827 -1.02873 14.4767 -1.10527C14.5706 -1.18181 14.6815 -1.23478 14.8 -1.25977H15.24L21.54 0.530234C22.1826 0.703218 22.7495 1.08496 23.1514 1.61538C23.5533 2.1458 23.7674 2.7948 23.76 3.46023L23.82 3.49023Z" fill="#E8175D"/>
</g>
<defs>
<clipPath id="clip0_228_645">
<rect width="24" height="24" fill="white"/>
</clipPath>
</defs>
</svg>
