<svg width="62" height="27" viewBox="0 0 62 27" fill="none" xmlns="http://www.w3.org/2000/svg">
<path d="M2.75 6.861C2.75 3.459 3.46 2.75 6.861 2.75M2.75 14.056V9.944M6.861 21.25C3.459 21.25 2.75 20.54 2.75 17.139M14.056 21.25H9.944M21.25 17.139C21.25 20.541 20.54 21.25 17.139 21.25M21.25 9.944V14.056M17.139 2.75C20.541 2.75 21.25 3.46 21.25 6.861M9.944 2.75H14.056" stroke="#E8175D" stroke-width="1.5" stroke-linecap="round"/>
<g clip-path="url(#clip0_98_59)">
<path d="M23.82 3.49023V4.49023C23.8188 4.95568 23.7092 5.41444 23.5 5.83023C23.2971 6.24962 22.9992 6.61597 22.63 6.90023C22.2612 7.18133 21.8341 7.37611 21.38 7.47023C21.1794 7.51023 20.976 7.53023 20.77 7.53023C20.5094 7.53023 20.2527 7.50023 20 7.44023L15.76 6.24023V14.4602C15.7627 15.5631 15.3846 16.6331 14.6898 17.4895C13.9949 18.346 13.0258 18.9364 11.9461 19.1611C10.8663 19.3859 9.74213 19.2311 8.76328 18.723C7.78442 18.2149 7.01088 17.3846 6.57327 16.3723C6.13566 15.3599 6.06079 14.2276 6.3613 13.1664C6.66181 12.1053 7.3193 11.1804 8.22273 10.5478C9.12617 9.91526 10.2202 9.61383 11.3201 9.69444C12.4201 9.77504 13.4585 10.2327 14.26 10.9902V-0.539766C14.2489 -0.605963 14.2489 -0.673568 14.26 -0.739766V-0.819766C14.3085 -0.930843 14.3827 -1.02873 14.4767 -1.10527C14.5706 -1.18181 14.6815 -1.23478 14.8 -1.25977H15.24L21.54 0.530234C22.1826 0.703218 22.7495 1.08496 23.1514 1.61538C23.5533 2.1458 23.7674 2.7948 23.76 3.46023L23.82 3.49023Z" fill="#E8175D"/>
</g>
<path d="M29.45 21.042C29.366 21.4153 29.0767 21.644 28.582 21.728C28.1247 21.812 27.6907 21.7607 27.28 21.574C26.8227 21.378 26.622 21.1027 26.678 20.748C26.622 20.2067 26.9067 19.0307 27.532 17.22C28.4653 14.504 29.3987 12.5627 30.332 11.396C30.5747 11.0973 30.78 10.906 30.948 10.822C31.1253 10.7287 31.326 10.6447 31.55 10.57C31.774 10.4953 32.0073 10.4253 32.25 10.36C32.7353 10.2293 33.1927 10.1407 33.622 10.094C34.0607 10.038 34.4527 10.0893 34.798 10.248C35.1433 10.3973 35.4093 10.6213 35.596 10.92C35.792 11.2187 35.9133 11.5733 35.96 11.984C36.0067 12.3853 35.9927 12.81 35.918 13.258C35.8433 13.6967 35.708 14.1447 35.512 14.602C35.316 15.05 35.0687 15.47 34.77 15.862C34.1167 16.7207 33.3513 17.276 32.474 17.528L32.614 17.766C32.7353 17.9527 32.88 18.158 33.048 18.382C33.2253 18.606 33.398 18.8347 33.566 19.068C33.7433 19.3013 33.902 19.5347 34.042 19.768C34.182 20.0013 34.2847 20.2207 34.35 20.426C34.4993 20.8833 34.3827 21.2147 34 21.42C33.692 21.6067 33.4493 21.6533 33.272 21.56C33.1973 21.5133 33.1227 21.4527 33.048 21.378C32.9733 21.3127 32.8707 21.2567 32.74 21.21C32.1893 21.3687 31.7693 21.2287 31.48 20.79C31.3027 20.51 31.1673 20.2533 31.074 20.02C30.9807 19.7867 30.9013 19.5907 30.836 19.432C30.668 19.0867 30.4767 18.788 30.262 18.536C30.1593 18.788 30.0427 19.11 29.912 19.502C29.7533 19.9967 29.576 20.51 29.38 21.042H29.45ZM32.278 12.894C32.1007 13.2953 31.9793 13.5753 31.914 13.734C31.7833 14.0513 31.6387 14.4013 31.48 14.784C31.452 14.9893 31.4287 15.134 31.41 15.218L31.606 15.022L31.844 14.91C32.012 14.8167 32.166 14.7327 32.306 14.658C32.446 14.5833 32.572 14.49 32.684 14.378C32.8987 14.1633 33.0853 13.8133 33.244 13.328C33.244 13.2347 33.258 13.1413 33.286 13.048C33.3233 12.9547 33.3467 12.8613 33.356 12.768C33.3933 12.5627 33.3093 12.418 33.104 12.334C32.9173 12.3153 32.684 12.4693 32.404 12.796C32.348 12.8613 32.306 12.894 32.278 12.894ZM36.9964 14.938C37.1178 14.63 37.4071 14.42 37.8644 14.308C38.2938 14.196 38.6951 14.21 39.0684 14.35C39.4511 14.4993 39.6238 14.742 39.5864 15.078C39.4838 15.4047 39.3531 15.806 39.1944 16.282C39.0451 16.7487 38.9004 17.2293 38.7604 17.724C38.3871 18.9933 38.1724 19.8893 38.1164 20.412C37.9764 21.252 37.7431 21.7047 37.4164 21.77C37.3231 21.7887 37.2344 21.8027 37.1504 21.812C36.9451 21.8213 36.8144 21.8773 36.7584 21.98C36.7024 22.0827 36.6091 22.1573 36.4784 22.204C36.3478 22.26 36.2031 22.2833 36.0444 22.274C35.8951 22.274 35.7411 22.2367 35.5824 22.162C35.4238 22.0967 35.2884 21.9987 35.1764 21.868C34.9151 21.5507 34.8638 21.126 35.0224 20.594C35.1718 19.5767 35.5498 18.284 36.1564 16.716C36.4458 15.9413 36.7258 15.3487 36.9964 14.938ZM39.6424 12.838C39.1851 12.9313 38.8118 12.9033 38.5224 12.754C38.2424 12.6047 38.0791 12.4273 38.0324 12.222C37.9858 12.0073 38.0511 11.788 38.2284 11.564C38.4338 11.284 38.7418 11.102 39.1524 11.018C39.3391 10.9993 39.4744 10.99 39.5584 10.99C39.6424 10.99 39.7451 11.0087 39.8664 11.046C40.1744 11.074 40.3751 11.2093 40.4684 11.452C40.5991 11.6573 40.6084 11.8907 40.4964 12.152C40.3938 12.4133 40.1091 12.642 39.6424 12.838ZM42.7405 14.784C42.7872 15.344 42.8292 15.9087 42.8665 16.478C42.9038 17.038 42.9598 17.598 43.0345 18.158C43.2025 17.8127 43.3565 17.4487 43.4965 17.066C43.6458 16.6833 43.8045 16.3053 43.9725 15.932C44.3738 15.0547 44.8172 14.4107 45.3025 14C45.6012 13.6733 46.0492 13.51 46.6465 13.51C47.0012 13.51 47.2252 13.622 47.3185 13.846C47.3652 13.958 47.3512 14.1073 47.2765 14.294C47.7338 14.6207 47.8318 14.9987 47.5705 15.428C47.4958 15.54 47.4212 15.6427 47.3465 15.736C46.9452 16.408 46.5765 17.0287 46.2405 17.598C45.6898 18.5407 45.1952 19.348 44.7565 20.02C44.6072 20.244 44.3972 20.496 44.1265 20.776C43.8652 21.0467 43.5758 21.28 43.2585 21.476C42.5118 21.9613 41.9192 22.05 41.4805 21.742C41.1912 21.7047 40.9205 21.6113 40.6685 21.462C40.4165 21.3127 40.2252 21.1167 40.0945 20.874C39.8985 20.3607 39.9452 19.1847 40.2345 17.346C40.2998 16.9353 40.3418 16.6273 40.3605 16.422C40.3792 16.2167 40.4025 16.03 40.4305 15.862C40.4585 15.694 40.4818 15.5353 40.5005 15.386C40.5192 15.2367 40.5378 15.0873 40.5565 14.938C40.5752 14.7793 40.6172 14.6347 40.6825 14.504C40.8412 14.2053 41.1305 14.042 41.5505 14.014H41.7185C41.8865 14.0513 42.0452 14.0933 42.1945 14.14C42.4465 14.2333 42.6145 14.4107 42.6985 14.672C42.7078 14.7 42.7218 14.7373 42.7405 14.784ZM48.7295 15.022C48.9255 14.882 49.1682 14.8493 49.4575 14.924C49.5135 14.9333 49.5695 14.938 49.6255 14.938C49.8309 14.518 50.1855 14.2987 50.6895 14.28C50.8202 14.2707 51.0022 14.2473 51.2355 14.21C51.4689 14.1727 51.7489 14.182 52.0755 14.238C52.4115 14.294 52.7055 14.392 52.9575 14.532C53.5082 14.8307 53.8395 15.26 53.9515 15.82C54.1755 16.6413 54.1429 17.5373 53.8535 18.508C53.5455 19.5813 53.0229 20.44 52.2855 21.084C51.9495 21.3827 51.5949 21.5693 51.2215 21.644C50.8482 21.728 50.5122 21.7747 50.2135 21.784C49.9149 21.7933 49.6395 21.7933 49.3875 21.784C49.1449 21.784 48.9069 21.7607 48.6735 21.714C48.1695 21.6113 47.7542 21.3733 47.4275 21C47.0449 20.58 46.8815 19.9267 46.9375 19.04C46.9749 18.256 47.1709 17.4673 47.5255 16.674C47.8895 15.8713 48.2909 15.3207 48.7295 15.022ZM51.1935 17.836C50.9602 17.9107 50.7409 17.9433 50.5355 17.934C50.4329 18.0367 50.3395 18.1487 50.2555 18.27C50.1809 18.382 50.0782 18.4893 49.9475 18.592C49.8169 18.6853 49.7515 18.7227 49.7515 18.704C49.5929 18.928 49.4622 19.1613 49.3595 19.404C49.2569 19.6373 49.2569 19.8753 49.3595 20.118C49.7329 20.1553 50.0082 20.146 50.1855 20.09C50.3629 20.034 50.5262 19.9267 50.6755 19.768C50.8342 19.6093 50.9555 19.4227 51.0395 19.208C51.2075 18.8067 51.2589 18.3493 51.1935 17.836ZM59.1373 14.756C59.38 14.5693 59.548 14.4293 59.6413 14.336C59.7347 14.2427 59.8327 14.154 59.9353 14.07C60.038 13.986 60.136 13.9347 60.2293 13.916C60.3227 13.8973 60.4253 13.9067 60.5373 13.944C60.6587 13.972 60.766 14 60.8593 14.028C60.962 14.056 61.0227 14.0747 61.0413 14.084C61.144 14.1867 61.228 14.322 61.2933 14.49C61.3587 14.658 61.3913 14.7887 61.3913 14.882C61.3913 14.9753 61.3633 15.0593 61.3073 15.134C61.1207 15.6193 60.626 16.3053 59.8233 17.192C59.6273 17.416 59.4547 17.598 59.3053 17.738C59.3893 18.018 59.45 18.3867 59.4873 18.844C59.5807 19.7867 59.6413 20.328 59.6693 20.468C59.6973 20.608 59.716 20.7107 59.7253 20.776C59.7347 20.8413 59.7627 20.9067 59.8093 20.972C59.8467 21.1307 59.7953 21.2567 59.6553 21.35C59.5247 21.4433 59.3567 21.5133 59.1513 21.56C58.722 21.6627 58.358 21.6767 58.0593 21.602C57.91 21.49 57.8027 21.35 57.7373 21.182C57.644 20.986 57.4993 20.58 57.3033 19.964C57.2007 20.076 57.1027 20.188 57.0093 20.3C56.916 20.412 56.8227 20.524 56.7293 20.636L56.5333 20.902C56.4773 20.9767 56.4213 21.0513 56.3653 21.126C56.3187 21.2007 56.2627 21.28 56.1973 21.364C56.0667 21.5133 55.8707 21.6673 55.6093 21.826C55.3573 21.9287 55.124 21.9753 54.9093 21.966C54.508 21.938 54.2887 21.8307 54.2513 21.644C54.0367 21.5693 53.9107 21.4527 53.8733 21.294C53.836 21.1447 53.8593 20.902 53.9433 20.566C54.7833 19.0353 55.5253 17.99 56.1693 17.43C56.0853 17.2993 56.02 17.0987 55.9733 16.828C55.8707 16.324 55.7773 15.9973 55.6933 15.848C55.46 15.7827 55.292 15.6613 55.1893 15.484C55.0867 15.3067 55.1147 15.0593 55.2733 14.742L55.4413 14.546C55.8053 14.2193 56.1787 14.0233 56.5613 13.958C56.9533 13.8927 57.3127 13.986 57.6393 14.238C57.882 14.3313 58.148 14.5927 58.4373 15.022C58.512 15.134 58.5587 15.2273 58.5773 15.302C58.7173 15.1153 58.904 14.9333 59.1373 14.756Z" fill="white"/>
<g clip-path="url(#clip1_98_59)">
<path d="M41.5141 11.0414L41.2286 12.1649C41.2132 12.2446 41.1807 12.32 41.133 12.3864C41.0853 12.4529 41.0235 12.5091 40.9514 12.5515C40.8792 12.594 40.7982 12.6218 40.7133 12.6333C40.6284 12.6448 40.5414 12.6398 40.4576 12.6185C40.3738 12.5972 40.2949 12.5601 40.2258 12.5094C40.1567 12.4588 40.0988 12.3956 40.0557 12.3239C40.0125 12.2521 39.9851 12.1733 39.9749 12.0921C39.9648 12.0109 39.9722 11.9292 39.9967 11.8518L40.1109 11.4024C40.1375 11.2976 40.194 11.2024 40.2743 11.1272C40.3547 11.0519 40.4559 10.9995 40.5671 10.9754C40.6782 10.9513 40.7952 10.9565 40.9053 10.9904C41.0155 11.0244 41.1147 11.0858 41.1922 11.168L41.242 10.9723C41.3395 10.5885 41.2706 10.1792 41.0504 9.83438C40.8301 9.48953 40.4766 9.2374 40.0676 9.13345C39.6586 9.02949 39.2276 9.08224 38.8695 9.28007C38.5113 9.47791 38.2553 9.80463 38.1577 10.1884L38.108 10.3841C38.2254 10.3451 38.3538 10.341 38.476 10.3725C38.6391 10.414 38.7801 10.5146 38.8679 10.6521C38.9558 10.7896 38.9832 10.9529 38.9444 11.1059L38.8301 11.5553C38.7912 11.7083 38.6891 11.8386 38.5463 11.9175C38.4034 11.9964 38.2315 12.0175 38.0684 11.976C37.9053 11.9346 37.7643 11.834 37.6765 11.6965C37.5887 11.5589 37.5612 11.3957 37.6001 11.2426L37.8856 10.1192C38.0003 9.66774 38.3015 9.28336 38.7229 9.05062C39.1443 8.81787 39.6513 8.75582 40.1325 8.87811C40.6137 9.00041 41.0296 9.29704 41.2887 9.70274C41.5478 10.1084 41.6289 10.59 41.5141 11.0414Z" fill="#E8175D"/>
</g>
<defs>
<clipPath id="clip0_98_59">
<rect width="24" height="24" fill="white"/>
</clipPath>
<clipPath id="clip1_98_59">
<rect width="4.49269" height="4.21517" fill="white" transform="translate(38.0383 8) rotate(14.2606)"/>
</clipPath>
</defs>
</svg>
